<?xml version="1.0" encoding="UTF-8"?>
<!DOCTYPE svg PUBLIC "-//W3C//DTD SVG 1.1//EN" "http://www.w3.org/Graphics/SVG/1.1/DTD/svg11.dtd">
<!-- Creator: CorelDRAW 2020 (64 Bit) -->
<svg xmlns="http://www.w3.org/2000/svg" xml:space="preserve" width="13mm" height="13mm" version="1.1" style="shape-rendering:geometricPrecision; text-rendering:geometricPrecision; image-rendering:optimizeQuality; fill-rule:evenodd; clip-rule:evenodd"
viewBox="0 0 1300 1300"
 xmlns:xlink="http://www.w3.org/1999/xlink"
 xmlns:xodm="http://www.corel.com/coreldraw/odm/2003">
 <defs>
  <style type="text/css">
   <![CDATA[
    .fil0 {fill:#FEFEFE;fill-rule:nonzero}
    .fil1 {fill:#005B85;fill-rule:nonzero}
   ]]>
  </style>
 </defs>
 <g id="Camada_x0020_1">
  <metadata id="CorelCorpID_0Corel-Layer"/>
  <path class="fil0" d="M1272.17 651.93c0,-344.67 -279.44,-624.1 -624.07,-624.1 -344.7,0 -624.13,279.43 -624.13,624.1 0,311.5 228.25,569.66 526.59,616.51l0 -436.14 -158.43 0 0 -180.37 158.43 0 0 -137.52c0,-156.42 93.2,-242.81 235.73,-242.81 68.29,0 139.73,12.2 139.73,12.2l0 153.57 -78.74 0c-77.5,0 -101.67,48.12 -101.67,97.47l0 117.09 173.07 0 -27.65 180.37 -145.42 0 0 436.14c298.35,-46.85 526.56,-305.01 526.56,-616.51z"/>
  <path class="fil1" d="M891.03 832.3l27.65 -180.37 -173.07 0 0 -117.09c0,-49.35 24.17,-97.47 101.67,-97.47l78.74 0 0 -153.57c0,0 -71.44,-12.2 -139.73,-12.2 -142.53,0 -235.73,86.39 -235.73,242.81l0 137.52 -158.43 0 0 180.37 158.43 0 0 436.14c31.79,4.98 64.35,7.59 97.54,7.59 33.16,0 65.73,-2.61 97.51,-7.59l0 -436.14 145.42 0z"/>
 </g>
</svg>
