<?xml version="1.0" encoding="UTF-8"?>
<!DOCTYPE svg PUBLIC "-//W3C//DTD SVG 1.1//EN" "http://www.w3.org/Graphics/SVG/1.1/DTD/svg11.dtd">
<!-- Creator: CorelDRAW 2020 (64 Bit) -->
<svg xmlns="http://www.w3.org/2000/svg" xml:space="preserve" width="13mm" height="13mm" version="1.1" style="shape-rendering:geometricPrecision; text-rendering:geometricPrecision; image-rendering:optimizeQuality; fill-rule:evenodd; clip-rule:evenodd"
viewBox="0 0 1300 1300"
 xmlns:xlink="http://www.w3.org/1999/xlink"
 xmlns:xodm="http://www.corel.com/coreldraw/odm/2003">
 <defs>
  <style type="text/css">
   <![CDATA[
    .fil1 {fill:#005B85;fill-rule:nonzero}
    .fil0 {fill:#FEFEFE;fill-rule:nonzero}
   ]]>
  </style>
 </defs>
 <g id="Camada_x0020_1">
  <metadata id="CorelCorpID_0Corel-Layer"/>
  <g id="_2542649093328">
   <path class="fil0" d="M1272.17 651.93c0,344.66 -279.44,624.1 -624.07,624.1 -344.7,0 -624.13,-279.44 -624.13,-624.1 0,-344.7 279.43,-624.1 624.13,-624.1 344.63,0 624.07,279.4 624.07,624.1z"/>
   <path class="fil1" d="M841.81 415.81c-23.7,0 -42.89,19.23 -42.89,42.9 0,23.71 19.19,42.9 42.89,42.9 23.71,0 42.9,-19.19 42.9,-42.9 0,-23.67 -19.19,-42.9 -42.9,-42.9z"/>
   <path class="fil1" d="M651.1 766.48c-63.67,0 -115.46,-51.79 -115.46,-115.43 0,-63.64 51.79,-115.43 115.46,-115.43 63.64,0 115.4,51.79 115.4,115.43 0,63.64 -51.76,115.43 -115.4,115.43zm0 -295.63c-99.38,0 -180.23,80.82 -180.23,180.2 0,99.37 80.85,180.2 180.23,180.2 99.34,0 180.2,-80.83 180.2,-180.2 0,-99.38 -80.86,-180.2 -180.2,-180.2z"/>
   <path class="fil1" d="M501.98 354.01c-83.22,0 -150.92,67.7 -150.92,150.95l0 292.17c0,83.22 67.7,150.96 150.92,150.96l292.17 0c83.26,0 150.99,-67.74 150.99,-150.96l0 -292.17c0,-83.25 -67.73,-150.95 -150.99,-150.95l-292.17 0zm292.17 662.9l-292.17 0c-121.18,0 -219.78,-98.6 -219.78,-219.78l0 -292.17c0,-121.18 98.6,-219.78 219.78,-219.78l292.17 0c121.18,0 219.82,98.6 219.82,219.78l0 292.17c0,121.18 -98.64,219.78 -219.82,219.78z"/>
  </g>
 </g>
</svg>
