<?xml version="1.0" encoding="UTF-8"?>
<!DOCTYPE svg PUBLIC "-//W3C//DTD SVG 1.1//EN" "http://www.w3.org/Graphics/SVG/1.1/DTD/svg11.dtd">
<!-- Creator: CorelDRAW 2020 (64 Bit) -->
<svg xmlns="http://www.w3.org/2000/svg" xml:space="preserve" width="52.9166mm" height="52.9166mm" version="1.1" style="shape-rendering:geometricPrecision; text-rendering:geometricPrecision; image-rendering:optimizeQuality; fill-rule:evenodd; clip-rule:evenodd"
viewBox="0 0 5291.66 5291.66"
 xmlns:xlink="http://www.w3.org/1999/xlink"
 xmlns:xodm="http://www.corel.com/coreldraw/odm/2003">
 <defs>
  <style type="text/css">
   <![CDATA[
    .fil0 {fill:#415A80}
   ]]>
  </style>
 </defs>
 <g id="Camada_x0020_1">
  <metadata id="CorelCorpID_0Corel-Layer"/>
  <g id="_2578795154816">
   <path class="fil0" d="M2556.88 5043.2c-191.26,-327.3 -529.63,-650.45 -994.6,-970.02 -794.24,-543.9 -1498.63,-1060.78 -1562.29,-2192.56 13.68,-923.92 411.34,-1547.4 1411.93,-1699.14 424.95,-36.84 915.64,233.74 1153.61,599.39 463.75,-584.48 1089.81,-732.06 1795.47,-338.78 363.34,240.56 581.14,591.43 659.21,1048.2l-167.69 298.24c-48.22,-447.46 -240.93,-778.34 -566.7,-1001.87 -433.61,-272.19 -855.88,-249.01 -1266.37,81.08 -167.54,155.42 -323.98,385.08 -468.39,694.94 -343.2,-811.11 -847.04,-1092.27 -1517.92,-822.35 -438.58,211.01 -645.64,576.61 -667.88,1065.58 -22.31,729.03 248.76,1215.86 951.22,1780.8 531.41,458.61 1072.06,921.85 1240.4,1456.49z"/>
   <path class="fil0" d="M3406.56 3520.95c-6.72,-241.56 101.16,-451.46 318.04,-631.24 374.68,-239.45 561.13,-540.43 558.01,-903.43 -425.02,296.66 -1477.49,834.56 -1642.24,1369.62 -230.74,556.45 -302.7,1139.4 -163.36,1757.63 1311.46,-583.5 2159.99,-1514.35 2561.66,-2792.81 124.98,-419.29 244.62,-915.09 252.99,-1345 -589.15,1119.64 -820.5,1925.52 -1885.1,2545.23z"/>
   <path class="fil0" d="M1496.01 1615.54c-112.74,43.13 -286.53,280.73 -300.51,401.33 -95.91,678.81 112.93,1623.39 1043.58,1848.56 -242.22,-146.92 -391.51,-312.45 -469.93,-492.17 -130.57,-417.87 494.57,-979.91 780.19,-1235.51 -256.51,65.06 -560.02,266.78 -823.19,466.48 177.63,-185.58 90.11,-404.54 -36.86,-430.66 -143.11,-15.93 -276.65,159.5 -225.76,370.68 -117.37,-92.72 -121.19,-265.66 -121.32,-442.96 12.94,-203.9 42.64,-349.49 153.8,-485.75z"/>
  </g>
 </g>
</svg>
