<?xml version="1.0" encoding="UTF-8"?>
<!DOCTYPE svg PUBLIC "-//W3C//DTD SVG 1.1//EN" "http://www.w3.org/Graphics/SVG/1.1/DTD/svg11.dtd">
<!-- Creator: CorelDRAW 2020 (64 Bit) -->
<svg xmlns="http://www.w3.org/2000/svg" xml:space="preserve" width="13mm" height="13mm" version="1.1" style="shape-rendering:geometricPrecision; text-rendering:geometricPrecision; image-rendering:optimizeQuality; fill-rule:evenodd; clip-rule:evenodd"
viewBox="0 0 1300 1300"
 xmlns:xlink="http://www.w3.org/1999/xlink"
 xmlns:xodm="http://www.corel.com/coreldraw/odm/2003">
 <defs>
  <style type="text/css">
   <![CDATA[
    .fil2 {fill:#005B85}
    .fil1 {fill:#005B85;fill-rule:nonzero}
    .fil0 {fill:#FEFEFE;fill-rule:nonzero}
   ]]>
  </style>
 </defs>
 <g id="Camada_x0020_1">
  <metadata id="CorelCorpID_0Corel-Layer"/>
  <g id="_2578838221312">
   <path class="fil0" d="M1272.17 651.93c0,344.66 -279.44,624.1 -624.07,624.1 -344.7,0 -624.13,-279.44 -624.13,-624.1 0,-344.66 279.43,-624.1 624.13,-624.1 344.63,0 624.07,279.44 624.07,624.1z"/>
   <path class="fil1" d="M515.74 880.06l12.31 7.35c45.12,26.85 96.42,41.09 148.42,41.09 160.3,0 290.69,-130.41 290.69,-290.75 0,-160.31 -130.39,-290.7 -290.69,-290.7 -160.31,0 -290.76,130.39 -290.76,290.7 0,52.94 14.71,105.09 42.51,150.77l7.55 12.35 -29.04 108.41 109.01 -29.22zm-204.86 125.07l52.07 -194.17c-29.49,-53.17 -45.01,-112.74 -45.01,-173.21 0,-197.62 160.83,-358.46 358.53,-358.46 197.62,0 358.45,160.84 358.45,358.46 0,197.69 -160.83,358.53 -358.45,358.53 -59.38,0 -117.97,-15 -170.43,-43.47l-195.16 52.32z"/>
   <path class="fil2" d="M809.78 687.63c-14.74,-8.81 -33.94,-18.7 -51.33,-11.57 -13.33,5.47 -21.83,26.32 -30.48,37 -4.41,5.44 -9.73,6.32 -16.54,3.6 -50.06,-19.96 -88.41,-53.37 -116.03,-99.44 -4.69,-7.13 -3.85,-12.78 1.76,-19.41 8.4,-9.84 18.88,-20.98 21.1,-34.21 2.29,-13.23 -3.95,-28.76 -9.39,-40.54 -7.02,-15.02 -14.81,-36.55 -29.91,-45.05 -13.9,-7.87 -32.17,-3.46 -44.52,6.63 -21.31,17.36 -31.61,44.56 -31.33,71.55 0.07,7.68 1.06,15.3 2.86,22.68 4.3,17.81 12.49,34.43 21.77,50.24 6.98,11.92 14.57,23.46 22.71,34.6 26.82,36.37 60.08,67.98 98.68,91.59 19.26,11.81 40.04,22.14 61.52,29.28 24.1,7.94 45.58,16.22 71.61,11.32 27.27,-5.23 54.12,-22.05 64.92,-48.33 3.21,-7.76 4.83,-16.44 3.03,-24.66 -3.7,-16.97 -26.67,-27.06 -40.43,-35.28z"/>
  </g>
 </g>
</svg>
